<svg xmlns="http://www.w3.org/2000/svg" viewBox="0 0 100 100" fill="none">

  <!-- Outer-left branch -->
  <line x1="37" y1="56" x2="12" y2="24" stroke="#F97316" stroke-width="3.5" stroke-linecap="round"/>
  <ellipse cx="9" cy="18" rx="5" ry="8" transform="rotate(-42 9 18)" fill="#F97316"/>

  <!-- Inner-left branch -->
  <line x1="43" y1="55" x2="32" y2="30" stroke="#F97316" stroke-width="2.5" stroke-linecap="round"/>
  <ellipse cx="30" cy="24" rx="4" ry="6.5" transform="rotate(-15 30 24)" fill="#F97316"/>

  <!-- Center branch -->
  <line x1="50" y1="54" x2="50" y2="28" stroke="#F97316" stroke-width="2.5" stroke-linecap="round"/>
  <ellipse cx="50" cy="22" rx="4" ry="6.5" fill="#F97316"/>

  <!-- Inner-right branch -->
  <line x1="57" y1="55" x2="68" y2="30" stroke="#F97316" stroke-width="2.5" stroke-linecap="round"/>
  <ellipse cx="70" cy="24" rx="4" ry="6.5" transform="rotate(15 70 24)" fill="#F97316"/>

  <!-- Outer-right branch -->
  <line x1="63" y1="56" x2="88" y2="24" stroke="#F97316" stroke-width="3.5" stroke-linecap="round"/>
  <ellipse cx="91" cy="18" rx="5" ry="8" transform="rotate(42 91 18)" fill="#F97316"/>

  <!-- PCB trace -->
  <line x1="27" y1="40" x2="73" y2="40" stroke="#F97316" stroke-width="2" stroke-linecap="round"/>

  <!-- Left wing -->
  <rect x="8" y="57" width="38" height="34" rx="13" fill="#F97316"/>
  <ellipse cx="27" cy="74" rx="10" ry="11.5" fill="#0a0a0a"/>

  <!-- Right wing -->
  <rect x="54" y="57" width="38" height="34" rx="13" fill="#F97316"/>
  <ellipse cx="73" cy="74" rx="10" ry="11.5" fill="#0a0a0a"/>

</svg>
